# xmcd CD database file
#
# Track frame offsets:
#	150
#	25077
#	49533
#	71762
#	92078
#	117206
#	138344
#	155028
#	175320
#	194102
#	215965
#	238849
#	260932
#	281868
#	305064
#
# Disc length: 4386 seconds
#
# Revision: 1
# Processed by: cddbd v1.5.1PL0 Copyright (c) Steve Scherf et al.
# Submitted via: CDex 1.51
#
DISCID=f511200f
DTITLE=GRUPO NICHE - LAS 30 MEJORES
DYEAR=1998
DGENRE=Salsa
TTITLE0=UNA AVENTURA
TTITLE1=GOTAS DE LLUVIA
TTITLE2=CALI PACHANGUERO
TTITLE3=LA MAGIA DE TUS VESOS
TTITLE4=ESE DIA
TTITLE5=MI PUEBLO NATAL
TTITLE6=ANA MILE
TTITLE7=COMO PODRE DISIMULAR
TTITLE8=BRILLA EL SOL
TTITLE9=HAGAMOS LO QUE DIGA EL CORAZON
TTITLE10=PERDER PARA AMAR
TTITLE11=MI VALLE DEL CAUCA
TTITLE12=EL AMOR VENDRA
TTITLE13=MISERABLE
TTITLE14=LISTO MEDELLIN
EXTD=YEAR: 1998
EXTT0=
EXTT1=
EXTT2=
EXTT3=
EXTT4=
EXTT5=
EXTT6=
EXTT7=
EXTT8=
EXTT9=
EXTT10=
EXTT11=
EXTT12=
EXTT13=
EXTT14=
PLAYORDER=
